<?xml version="1.0" encoding="UTF-8"?>
<svg width="122.73mm" height="59.327mm" version="1.1" viewBox="0 0 122.73 59.327" xmlns="http://www.w3.org/2000/svg" xmlns:cc="http://creativecommons.org/ns#" xmlns:dc="http://purl.org/dc/elements/1.1/" xmlns:rdf="http://www.w3.org/1999/02/22-rdf-syntax-ns#">
 <defs>
  <clipPath id="clipPath446">
   <path d="m90.9 568.95h100.8v100.8h-100.8z"/>
  </clipPath>
 </defs>
 <metadata>
  <rdf:RDF>
   <cc:Work rdf:about="">
    <dc:format>image/svg+xml</dc:format>
    <dc:type rdf:resource="http://purl.org/dc/dcmitype/StillImage"/>
    <dc:title/>
   </cc:Work>
  </rdf:RDF>
 </metadata>
 <g transform="translate(-36.153 -114.72)">
  <g transform="matrix(.35278 0 0 -.35278 187.74 250.62)">
   <g transform="matrix(4.8318 0 0 4.8318 -369.16 320.91)">
    <path d="m0 0 0.548-0.053 0.012 2.802-2.954 0.379 2e-3 -2.881 0.513-0.062-0.823-4.835-0.878 5.025 0.399-0.034 0.016 2.897-3.059 0.472 8e-3 -3.021 0.371-0.049-0.88-5.29-0.78 5.516 0.458-0.066-0.022 3.065-3.239 0.561-4e-3 -3.184 0.489-0.072 1.707-9.704-0.657-0.088v-3.216l3.77 0.632 3e-3 3.057-0.546-0.058 0.837 4.497 0.947-4.29-0.578-0.069 7e-3 -3.023 3.7 0.516v2.899l-0.609-0.051z" fill="#005d41"/>
   </g>
   <g transform="matrix(4.8318 0 0 4.8318 -307.15 282.93)">
    <path d="m0 0v3.661l-1.18 1.545-2.38 0.095-0.023 1.866 1.55-0.076-6e-3 -1.255 2.039-0.094v2.24l-1.184 1.669-3.267 0.221-1.183-1.669-0.031-3.786 1.183-1.668 2.418-4e-3 0.015-1.712-1.557-0.098 0.01 1.19-2.038-0.043v-1.261l-0.426-0.03-1.78 6.661 0.508-0.039 4e-3 2.683-3.942 0.404v-2.764l0.455-0.05-1.776-7.395-0.596-0.071 0.014-2.894 3.413 0.387 0.014 2.806-0.737-0.078 0.253 0.963 1.777 0.11 0.223-0.897-0.687-0.048 0.015-2.767 3.433 0.296v1.438l1.062-1.355 3.244 0.234zm-9.855 3.14 0.525 2.256 0.533-2.178z" fill="#005d41"/>
   </g>
   <g transform="matrix(4.8318 0 0 4.8318 -287.72 288.88)">
    <path d="m0 0v-2.589l2.929 0.082v2.576l-0.445-0.013v5.525l0.445-6e-3v2.525l-2.929 0.078v-2.548h0.445v-1.485h-1.451v1.517l0.446-5e-3v2.524l-2.929 0.126v-2.557l0.446-0.022v-5.81l-0.446-0.02v-2.632l2.929 0.124v2.61l-0.446-0.013v1.585h1.451v-1.551z" fill="#005d41"/>
   </g>
   <g transform="matrix(4.8318 0 0 4.8318 -270.99 315.79)">
    <path d="m0 0 0.446-0.011v-5.475h-0.446v-2.591l2.928 0.013v2.592l-0.445-7e-3v5.468h0.445v2.509l-2.928 0.023z" fill="#005d41"/>
   </g>
   <g transform="matrix(4.8318 0 0 4.8318 -254.27 289.35)">
    <path d="m0 0 0.01-2.587 2.918-0.039v2.619l-0.445-7e-3v2.067l2.002-4.705 2.447-0.065v2.626l-0.444 7e-3v5.618l0.444 0.021v2.549l-2.927-0.091v-2.52l0.446 9e-3v-2.459l-2.077 4.949-2.374-0.023v-2.507h0.444v-5.462z" fill="#005d41"/>
   </g>
   <g transform="matrix(4.8318 0 0 4.8318 -212.54 328.87)">
    <path d="m0 0-1.169-1.65v-7.684l1.215-1.641 3.235-0.189 1.182 1.667v4.499l-2.597-0.062v-2.034l0.561-0.037 7e-3 -1.294-1.572 0.083v5.791l1.557 0.052 8e-3 -1.536 2.036 0.079v2.482l-1.172 1.657z" fill="#005d41"/>
   </g>
   <g transform="matrix(4.8318 0 0 4.8318 -188.49 312.47)">
    <path d="m0 0 1.542 0.041v1.094l0.577 0.042v-6.451l-0.729 0.041v-2.742l3.491-0.295v2.803l-0.724 0.068v6.689l0.604 0.048v-1.276l1.505 0.011v4.164l-6.266-0.561z" fill="#005d41"/>
   </g>
   <g transform="matrix(4.8318 0 0 4.8318 -150.2 333.86)">
    <path d="m0 0-1.167-1.642v-9.756l1.166-1.638 3.309-0.411 1.158 1.644 0.042 10.543-1.182 1.67zm2.414-10.368-1.543 0.142 0.016 7.477 1.543 0.142z" fill="#005d41"/>
   </g>
   <g transform="matrix(4.8318 0 0 4.8318 -92.316 326.9)">
    <path d="m0 0 2e-3 3.266-2.932-0.533 2e-3 -3.14 0.46 0.066-0.016-4.388-2.026 7.193-2.424-0.366v-2.978l0.445 0.044v-8.41l-0.445 0.041v-3.044l2.928-0.455v3.161l-0.444 0.048v3.776l2.093-7.274 2.357-0.434v3.347l-0.445 0.055v9.959z" fill="#005d41"/>
   </g>
   <g transform="matrix(4.8318 0 0 4.8318 -938.49 -2691.5)">
    <g clip-path="url(#clipPath446)">
     <g transform="translate(146.88 613.58)">
      <path d="m0 0c-0.897 0.022-1.625 0.035-1.625 0.035v-1.345h-7.576v1.287c-0.536-5e-3 -1.082-0.013-1.622-0.023v-2.887h10.823z" fill="#005d41"/>
     </g>
     <g transform="translate(152.53 613.32)">
      <path d="m0 0v-4.572l-3.804-2.799h-14.428l-3.813 2.843v5.205l-0.522-0.644-1.323-0.091-1e-3 -5.507 4.905-3.701h15.935l4.897 3.755v6.188l-0.522-0.761c-0.439 0.027-0.89 0.056-1.324 0.084" fill="#005d41"/>
     </g>
     <g transform="translate(128.64 626.08)">
      <path d="m0 0 1.305-0.071 0.513-0.733v4.013l-1.719 0.156v2.592c5.624-0.364 9.019-0.426 9.019-0.426v-2.645l-1.672 0.041v-3.297c0.963-0.03 1.635-0.048 1.635-0.048v1.618l1.929-0.035v6.181c-7.449 0.198-12.851 0.677-12.851 0.677l-0.033-6.293 1.874-0.128z" fill="#005d41"/>
     </g>
     <g transform="translate(148.36 625.77)">
      <path d="M 0,0 C 0.35,0.013 0.667,0.027 0.908,0.043 0.63,0.027 0.311,0.012 0,0" fill="#005d41"/>
     </g>
     <g transform="translate(145.26 625.68)">
      <path d="m0 0s0.744 0.014 1.625 0.037v3.285l-1.606-0.04v2.662c3.268 0.094 9.005 0.409 9.005 0.409v-2.592l-1.668-0.154v-3.316c0.559 0.031 1.041 0.061 1.256 0.082l0.547-0.703v2.283l1.839 0.197v6.208s-7.004-0.572-12.891-0.682v-6.159l1.893 0.04z" fill="#005d41"/>
     </g>
     <g transform="translate(159.32 628.77)">
      <path d="m0 0h0.248v0.937h0.359v0.201h-0.966v-0.201h0.359z" fill="#b20029"/>
     </g>
     <g transform="translate(160.25 629.72)">
      <path d="m0 0h3e-3l0.217-0.95h0.243l0.222 0.95h2e-3v-0.95h0.232v1.137h-0.422l-0.148-0.76-0.157 0.76h-0.424v-1.137h0.232z" fill="#b20029"/>
     </g>
     <g transform="translate(165.57 623.52)">
      <path d="m0 0-1.543-0.143-0.015-7.476 1.542-0.142z" fill="#fff"/>
     </g>
     <g transform="translate(120.81 618.72)">
      <path d="m0 0 1.058 0.078-0.533 2.179z" fill="#fff"/>
     </g>
     <g transform="translate(176.01 615.92)">
      <path d="m0 0v7.929l0.433 0.077v5.983c-10.598-2.464-18.823-2.801-18.823-2.801v8.777c-8.065-0.692-15.232-0.785-15.232-0.785h-1.983c-5.734 0.044-15.107 0.816-15.107 0.816l-0.068-8.866c-10.817 0.792-19.148 2.906-19.148 2.906l0.035-6.132 0.666-0.103 1.335-7.486-0.394-0.066v-6.014c9.586 1.963 19.403 2.612 19.403 2.612v-5.337l5.994-4.707h16.608l6.016 4.702v5.284c2.823-0.22 5.517-0.462 5.517-0.462v1.429l1.064-1.561c6.646-0.836 14.204-2.355 14.204-2.355v6.094zm-16.629 7.068v-6.689l0.724-0.068v-2.803l-3.491 0.295v2.741l0.729-0.04v6.45l-0.578-0.042v-1.093l-1.541-0.041v3.676l6.266 0.561v-4.164l-1.505-0.011v1.275zm-51.858 4.884 3.238-0.561 0.023-3.066-0.459 0.067 0.781-5.517 0.88 5.29-0.371 0.049-9e-3 3.021 3.059-0.472-0.015-2.896-0.399 0.033 0.878-5.025 0.823 4.835-0.514 0.062-1e-3 2.881 2.954-0.379-0.013-2.802-0.547 0.053-1.242-7.728 0.609 0.052v-2.9l-3.7-0.516-7e-3 3.023 0.578 0.07-0.948 4.289-0.836-4.497 0.545 0.058-2e-3 -3.056-3.77-0.632v3.216l0.656 0.087-1.706 9.704-0.489 0.072zm17.673-12.752v-1.438l-3.434-0.296-0.014 2.767 0.686 0.048-0.223 0.897-1.777-0.11-0.253-0.963 0.737 0.078-0.014-2.807-3.413-0.386-0.013 2.894 0.595 0.071 1.776 7.395-0.455 0.049v2.764l3.942-0.403-4e-3 -2.683-0.508 0.038 1.78-6.66 0.426 0.03v1.261l2.038 0.043-0.01-1.19 1.557 0.097-0.015 1.713-2.417 4e-3 -1.183 1.667 0.03 3.787 1.183 1.669 3.267-0.221 1.184-1.67v-2.239l-2.039 0.094 6e-3 1.255-1.549 0.076 0.023-1.866 2.38-0.095 1.179-1.546v-3.66l-1.163-1.585-3.244-0.234zm20.419 7.286v2.52l2.928 0.091v-2.549l-0.445-0.021v-5.618l0.445-7e-3v-2.626l-2.448 0.065-2.002 4.705v-2.067l0.445 7e-3v-2.619l-2.917 0.039-0.011 2.587h0.444v5.462h-0.444v2.507l2.375 0.023 2.076-4.949v2.459zm1.62 3.326v0.35h-1e-3v3.287l-0.356-9e-3 -1.251-0.031v1.959c2.781 0.088 7.045 0.312 8.311 0.379v-1.898l-1.352-0.125-0.317-0.029v-1.732h1e-3v-1.932c-0.801-0.048-2.434-0.115-2.434-0.115l-0.563-0.81 1e-3 0.785c-0.241-0.015-0.558-0.029-0.908-0.042-0.432-0.018-0.85-0.031-1.131-0.04zm4.936-12.383h8e-3v-5e-3l4e-3 -0.348v-4.067l-3.569-2.627h-14.202l-3.579 2.669v0.035h-1e-3v4.374h1e-3c0.139 6e-3 0.319 0.013 0.535 0.021 1.051 0.04 2.851 0.104 4.338 0.128h9e-3l1e-3 -0.352h1e-3v-2.879h11.517v3.278l1.97-0.057v0.982l0.706-1.008zm-6.91-1.077v1.345s0.729-0.013 1.626-0.035v-2.933h-10.823v2.887c0.539 0.01 1.085 0.018 1.622 0.023v-1.287zm-7.647 10.119-0.444 5e-3v-5.525l0.444 0.013v-2.576l-2.928-0.082v2.589l0.445 0.021v1.552h-1.451v-1.586l0.446 0.013v-2.61l-2.929-0.124v2.632l0.446 0.02v5.81l-0.446 0.022v2.558l2.929-0.127v-2.524l-0.446 6e-3v-1.518h1.451v1.485h-0.445v2.548l2.928-0.077zm-1.876 6.617v-2.94l-5e-3 -0.345v-7e-3c-2.044 0.049-4.122 0.163-4.927 0.21v0.353h-1e-3v3.334l-0.316 0.028-1.403 0.128v1.894c4.365-0.276 7.354-0.369 8.325-0.395v-1.939l-1.317 0.031-0.356 9e-3zm5.338-6.634h-0.445v-5.468l0.445 7e-3v-2.592l-2.928-0.013v2.591h0.446v5.475l-0.446 0.011v2.521l2.928-0.023zm-1.426 4.873-1.93 0.034v-1.617s-0.671 0.018-1.635 0.048v3.296l1.673-0.04v2.645s-3.396 0.062-9.019 0.426v-2.592l1.718-0.156v-4.014l-0.513 0.733-1.305 0.072v1.602l-1.873 0.128 0.033 6.293s5.401-0.479 12.851-0.678zm-11.009-13.983 1.323 0.091 0.522 0.643v-5.205l3.812-2.842h14.428l3.805 2.798v4.572c0.433-0.028 0.885-0.057 1.323-0.084l0.523 0.762v-6.188l-4.898-3.756h-15.934l-4.906 3.702zm26.069 7.872-2.037-0.079-8e-3 1.535-1.557-0.051v-5.791l1.573-0.083-8e-3 1.294-0.561 0.037v2.033l2.598 0.063v-4.499l-1.183-1.667-3.235 0.188-1.215 1.642v7.684l1.169 1.65 3.291 0.183 1.173-1.657zm-0.29 6.502v-2.283l-0.547 0.704c-0.214-0.021-0.696-0.051-1.255-0.083v3.317l1.667 0.154v2.592s-5.737-0.316-9.005-0.409v-2.662l1.607 0.04v-3.285c-0.882-0.023-1.626-0.037-1.626-0.037v1.557l-1.892-0.04v6.159c5.886 0.11 12.89 0.681 12.89 0.681v-6.207zm20.707-13.034v-3.346l-2.357 0.433-2.093 7.275v-3.776l0.444-0.048v-3.161l-2.927 0.455v3.043l0.444-0.041v8.411l-0.444-0.044v2.978l2.423 0.365 2.027-7.192 0.015 4.388-0.46-0.066-2e-3 3.14 2.932 0.533-2e-3 -3.266-0.445-0.066v-9.959zm-13.146 9.88 1.167 1.642 3.326 0.41 1.182-1.67-0.042-10.544-1.158-1.644-3.309 0.412-1.166 1.638z" fill="#fff"/>
     </g>
     <g transform="translate(176.78 616.6)">
      <path d="m0 0v6.6l0.433 0.077v7.604l-0.947-0.22c-8.519-1.981-15.563-2.581-17.876-2.735v8.8l-0.838-0.072c-7.943-0.681-15.105-0.781-15.167-0.782h-1.976c-5.64 0.043-14.957 0.806-15.05 0.813l-0.83 0.069-0.068-8.872c-10.221 0.822-18.112 2.802-18.192 2.822l-0.969 0.246 0.045-7.791 0.771-0.119 1.102-6.173-0.269-0.045v-7.615l0.927 0.19c7.836 1.604 15.92 2.333 18.476 2.536v-4.88l6.499-5.104h17.141l6.523 5.098v4.825c2.467-0.198 4.651-0.393 4.675-0.396l0.674-0.06 0.017-0.025 0.346-0.044c6.54-0.822 14.073-2.33 14.148-2.346l0.925-0.185v7.718zm-0.252-6.841s-7.559 1.519-14.204 2.355l-1.065 1.561v-1.429s-2.694 0.242-5.517 0.462v-5.284l-6.016-4.702h-16.608l-5.994 4.707v5.337s-9.817-0.65-19.403-2.612v6.014l0.395 0.066-1.336 7.486-0.666 0.103-0.035 6.132s8.332-2.114 19.148-2.907l0.068 8.867s9.373-0.772 15.107-0.816h1.983s7.167 0.093 15.233 0.785v-8.777s8.224 0.337 18.823 2.801v-5.983l-0.434-0.077v-7.929l0.521-0.066z" fill="#b20029"/>
     </g>
     <g transform="translate(130.8 625.92)">
      <path d="m0 0c0.805-0.047 2.883-0.161 4.928-0.21v7e-3l5e-3 0.345v3.301l0.355-9e-3 1.317-0.031v1.939c-0.971 0.026-3.96 0.119-8.324 0.395v-1.894l1.402-0.128 0.317-0.028v-3.685z" fill="#b20029"/>
     </g>
     <g transform="translate(145.62 629.33)">
      <path d="m0 0 1.25 0.031 0.357 9e-3v-3.64c0.281 9e-3 0.7 0.022 1.132 0.04 0.311 0.012 0.63 0.027 0.908 0.043l-2e-3 -0.786 0.564 0.81s1.632 0.067 2.434 0.115v1.932h-1e-3v1.732l0.317 0.029 1.352 0.125v1.898c-1.267-0.067-5.53-0.291-8.311-0.379z" fill="#b20029"/>
     </g>
     <g transform="translate(130.83 613.38)">
      <path d="m0 0h-1e-3v-4.375h1e-3v-0.034l3.579-2.669h14.202l3.569 2.626v4.068l-4e-3 0.348v4e-3l-8e-3 1e-3 -2.261 0.143-0.706 1.008v-0.981l-1.97 0.057v-3.279h-11.517v2.88h-1e-3l-1e-3 0.352h-9e-3c-1.487-0.025-3.287-0.088-4.338-0.128" fill="#b20029"/>
     </g>
    </g>
   </g>
  </g>
 </g>
</svg>
