<?xml version="1.0" encoding="UTF-8" standalone="no"?>
<svg
   xmlns:dc="http://purl.org/dc/elements/1.1/"
   xmlns:cc="http://creativecommons.org/ns#"
   xmlns:rdf="http://www.w3.org/1999/02/22-rdf-syntax-ns#"
   xmlns:svg="http://www.w3.org/2000/svg"
   xmlns="http://www.w3.org/2000/svg"
   xmlns:sodipodi="http://sodipodi.sourceforge.net/DTD/sodipodi-0.dtd"
   xmlns:inkscape="http://www.inkscape.org/namespaces/inkscape"
   inkscape:export-ydpi="16"
   inkscape:export-xdpi="16"
   inkscape:export-filename="\\wsl.localhost\Ubuntu\home\schlich\wrangling\static\img\washu_square_red_icon.png"
   sodipodi:docname="washu_square.svg"
   inkscape:version="1.0 (4035a4fb49, 2020-05-01)"
   id="svg2800"
   version="1.1"
   viewBox="0 0 25 25"
   height="25mm"
   width="25mm">
  <defs
     id="defs2794">
    <clipPath
       id="clipPath1561"
       clipPathUnits="userSpaceOnUse">
      <path
         id="path1559"
         d="m 90.9,349.35 h 100.8 v 100.8 H 90.9 Z" />
    </clipPath>
    <clipPath
       id="clipPath1639"
       clipPathUnits="userSpaceOnUse">
      <path
         id="path1637"
         d="m 200.7,349.35 h 100.8 v 100.8 H 200.7 Z" />
    </clipPath>
  </defs>
  <sodipodi:namedview
     inkscape:pagecheckerboard="false"
     inkscape:window-maximized="1"
     inkscape:window-y="-11"
     inkscape:window-x="-11"
     inkscape:window-height="974"
     inkscape:window-width="1920"
     showgrid="false"
     inkscape:document-rotation="0"
     inkscape:current-layer="layer1"
     inkscape:document-units="mm"
     inkscape:cy="28.355112"
     inkscape:cx="11.56047"
     inkscape:zoom="1.979899"
     inkscape:pageshadow="2"
     inkscape:pageopacity="1"
     borderopacity="1.0"
     bordercolor="#666666"
     pagecolor="#ffffff"
     id="base" />
  <metadata
     id="metadata2797">
    <rdf:RDF>
      <cc:Work
         rdf:about="">
        <dc:format>image/svg+xml</dc:format>
        <dc:type
           rdf:resource="http://purl.org/dc/dcmitype/StillImage" />
        <dc:title></dc:title>
      </cc:Work>
    </rdf:RDF>
  </metadata>
  <g
     transform="translate(-99.180953,-124.7242)"
     id="layer1"
     inkscape:groupmode="layer"
     inkscape:label="Layer 1">
    <g
       id="g1633"
       transform="matrix(0.35277777,0,0,-0.35277777,23.026382,278.17511)">
      <g
         clip-path="url(#clipPath1639)"
         id="g1635">
        <g
           transform="translate(285.7603,414.5824)"
           id="g1641">
          <path
             id="path1643"
             style="fill:#b20029;fill-opacity:1;fill-rule:nonzero;stroke:none"
             d="m 0,0 -1.247,-0.171 c -2.52,-0.345 -3.754,-0.496 -6.288,-0.77 l -1.229,-0.132 c -0.718,-0.074 -1.328,-0.136 -1.887,-0.19 V 0.21 l 2.127,0.233 1.05,0.114 v 1.057 12.296 1.28 l -1.276,-0.106 -0.744,-0.062 -0.04,-0.003 c -1.271,-0.103 -12.688,-1.012 -22.105,-1.191 l -0.675,-0.013 -1.155,-0.022 V 12.637 0.414 -0.79 l 1.203,0.026 2.065,0.044 v -2.749 c -3.081,-0.034 -6.065,-0.015 -8.92,0.045 v 2.704 l 2.066,-0.044 1.203,-0.026 v 1.204 12.223 1.156 l -1.156,0.022 -0.674,0.013 c -9.418,0.179 -20.834,1.088 -22.104,1.191 l -0.049,0.004 -0.735,0.061 -1.276,0.106 V 13.91 1.614 0.557 l 1.049,-0.114 2.127,-0.233 v -1.392 c -4.45,0.392 -7.698,0.787 -9.309,0.998 l -0.03,0.004 -0.071,0.009 -1.229,0.169 -1.336,0.184 -0.002,-1.349 -0.012,-7.477 -10e-4,-1.093 1.09,-0.083 0.308,-0.024 c 0.502,-2.694 1.021,-5.437 1.547,-8.181 l -0.617,-0.043 -0.002,-1.098 -0.014,-7.361 -0.002,-1.339 1.328,0.168 1.236,0.156 c 2.841,0.36 4.29,0.521 7.116,0.789 v -9.944 -0.576 l 0.455,-0.354 8.986,-6.98 0.32,-0.248 h 0.403 27.69 0.404 l 0.319,0.248 8.986,6.98 0.456,0.354 v 0.576 9.887 c 3.807,-0.341 6.743,-0.685 8.603,-0.924 l 0.366,-0.05 0.391,-0.053 1.245,-0.17 1.335,-0.182 0.002,1.348 0.013,7.5 0.002,1.095 -0.954,0.071 0.018,8.365 0.956,0.073 0.002,1.09 0.01,7.478 0.002,1.352 z m -9.538,-16.277 c -0.003,-1.411 -0.004,-2.117 -0.007,-3.527 0.395,-0.022 0.592,-0.032 0.985,-0.054 -0.005,-1.927 -0.007,-2.89 -0.012,-4.815 -1.296,0.134 -2.273,0.23 -3.257,0.318 -0.227,0.021 -0.455,0.041 -0.687,0.06 -0.224,0.019 -0.452,0.039 -0.687,0.058 -0.578,0.047 -1.2,0.096 -1.923,0.151 0.004,1.819 0.005,2.729 0.009,4.549 0.405,-0.016 0.606,-0.025 1.009,-0.042 0.009,3.722 0.018,7.446 0.028,11.169 -0.404,-0.018 -0.606,-0.027 -1.01,-0.044 0.003,1.812 0.004,2.719 0.008,4.53 0.705,0.054 1.314,0.102 1.879,0.148 0.235,0.019 0.464,0.038 0.687,0.057 0.232,0.02 0.46,0.04 0.687,0.06 1,0.09 1.986,0.187 3.303,0.323 -0.004,-1.918 -0.006,-2.877 -0.01,-4.794 -0.392,-0.023 -0.588,-0.033 -0.982,-0.055 -0.003,-1.157 -0.005,-1.735 -0.007,-2.891 1.287,0.035 1.927,0.054 3.197,0.094 0.004,1.193 0.006,1.791 0.009,2.984 -0.391,-0.024 -0.587,-0.036 -0.98,-0.06 0.004,1.941 0.006,2.912 0.009,4.854 2.576,0.28 3.847,0.436 6.352,0.779 -0.003,-2.082 -0.005,-3.122 -0.008,-5.204 -0.38,-0.029 -0.572,-0.042 -0.954,-0.07 -0.009,-4.197 -0.017,-8.392 -0.026,-12.588 0.382,-0.028 0.573,-0.042 0.954,-0.07 -0.004,-2.091 -0.006,-3.136 -0.01,-5.227 -2.505,0.343 -3.776,0.5 -6.353,0.78 0.004,1.949 0.005,2.924 0.009,4.874 0.392,-0.023 0.588,-0.035 0.978,-0.059 0.004,1.455 0.005,2.183 0.008,3.639 -1.271,0.031 -1.911,0.045 -3.198,0.073 m -38.497,-26.024 -8.083,6.278 v 10.683 c 0.902,0.077 1.674,0.14 2.427,0.197 v -1.12 h -10e-4 v -8.369 l 6.722,-5.02 h 12.236 0.148 12.235 l 6.721,5.02 v 8.369 1.036 c 0.836,-0.06 1.646,-0.122 2.427,-0.184 v -10.612 l -8.083,-6.278 z m -10.568,22.56 c -0.004,-1.889 -0.006,-2.833 -0.01,-4.722 -3.028,-0.284 -4.522,-0.45 -7.458,-0.821 0.004,2.037 0.006,3.055 0.009,5.091 0.426,0.03 0.64,0.044 1.068,0.073 -0.802,4.136 -1.585,8.274 -2.352,12.416 -0.415,0.03 -0.623,0.044 -1.037,0.075 0.004,2.081 0.005,3.122 0.008,5.202 2.268,-0.31 3.418,-0.452 5.745,-0.712 -0.005,-1.953 -0.008,-2.928 -0.012,-4.881 -0.328,0.02 -0.491,0.029 -0.817,0.05 0.576,-2.931 0.865,-4.372 1.445,-7.217 0.585,2.858 0.878,4.266 1.466,7.044 -0.299,0.017 -0.448,0.025 -0.746,0.042 0.004,1.927 0.006,2.89 0.009,4.816 1.528,-0.161 2.618,-0.27 3.793,-0.374 0.225,-0.02 0.452,-0.04 0.687,-0.06 0.221,-0.018 0.45,-0.037 0.687,-0.057 0.448,-0.036 0.929,-0.075 1.465,-0.117 -0.003,-1.817 -0.004,-2.725 -0.007,-4.543 -0.294,0.013 -0.441,0.019 -0.734,0.032 0.589,-2.712 0.883,-4.051 1.474,-6.702 0.081,0.355 0.157,0.686 0.229,1 0.07,0.307 0.137,0.597 0.201,0.876 0.139,0.606 0.267,1.162 0.398,1.724 0.207,0.892 0.421,1.804 0.697,2.979 -0.285,0.011 -0.456,0.018 -0.697,0.027 -0.056,0.003 -0.115,0.005 -0.18,0.007 0.003,1.8 0.005,2.698 0.008,4.496 0.059,-0.004 0.114,-0.008 0.172,-0.012 2.301,-0.166 3.525,-0.238 5.928,-0.353 -0.004,-1.733 -0.006,-2.599 -0.01,-4.332 -0.442,0.011 -0.663,0.018 -1.105,0.031 -0.866,-3.578 -1.718,-7.159 -2.553,-10.745 0.468,0.015 0.703,0.024 1.173,0.038 -0.004,-1.765 -0.005,-2.649 -0.01,-4.414 -1.359,-0.079 -2.411,-0.144 -3.423,-0.216 -0.093,-0.006 -0.185,-0.013 -0.278,-0.02 -0.107,-0.008 -0.214,-0.015 -0.321,-0.024 -0.763,-0.056 -1.533,-0.119 -2.427,-0.195 -0.22,-0.019 -0.451,-0.039 -0.687,-0.06 -0.122,-0.01 -0.243,-0.021 -0.37,-0.032 0.003,1.865 0.005,2.796 0.008,4.661 0.144,0.007 0.254,0.012 0.362,0.018 0.128,0.006 0.253,0.012 0.423,0.02 -0.157,0.576 -0.295,1.083 -0.423,1.555 -0.244,0.897 -0.451,1.672 -0.687,2.559 -0.149,0.559 -0.308,1.161 -0.494,1.87 -0.613,-2.424 -0.918,-3.65 -1.527,-6.142 0.364,0.02 0.546,0.03 0.91,0.049 m -0.691,32.159 c 2.721,-0.214 12.409,-0.94 20.89,-1.129 v -9.47 l -3.269,0.07 V -3.36 c -0.716,0.021 -1.423,0.045 -2.119,0.071 v 5.987 1.598 l 2.774,-0.071 v 4.688 c -5.645,0.164 -15.554,0.719 -15.554,0.719 V 5.068 l 2.881,-0.27 v -2.1 -5.457 c -0.836,0.059 -1.646,0.119 -2.427,0.181 V 2.5 l -3.176,0.347 z m 31.646,-41.626 v 4.588 c 0.716,-0.021 1.423,-0.045 2.12,-0.071 v -1.205 -5.481 h -9.058 -0.148 -9.058 v 5.481 1.283 c 0.71,0.021 1.417,0.04 2.119,0.055 v -4.65 z m 6.397,9.885 c 0.018,1.237 0.027,1.855 0.045,3.093 -1.516,0.018 -2.523,0.029 -3.722,0.038 -0.193,0.002 -0.393,0.004 -0.6,0.005 -0.401,0.003 -0.83,0.006 -1.313,0.01 -0.303,0.332 -0.564,0.617 -0.807,0.882 -0.239,0.261 -0.462,0.503 -0.687,0.746 -0.218,0.236 -0.443,0.479 -0.687,0.741 -0.186,0.2 -0.381,0.41 -0.603,0.647 0.006,2.093 0.009,3.199 0.014,5.178 0.001,0.12 0.001,0.243 0.001,0.369 0.216,0.233 0.406,0.44 0.588,0.637 0.244,0.266 0.469,0.511 0.687,0.749 0.225,0.247 0.449,0.493 0.687,0.757 0.252,0.278 0.521,0.577 0.836,0.928 0.46,0.014 0.883,0.027 1.284,0.04 0.206,0.007 0.406,0.014 0.6,0.02 1.949,0.068 3.386,0.14 5.706,0.278 1.086,-1.188 1.627,-1.789 2.702,-3.012 -0.003,-1.573 -0.004,-2.359 -0.008,-3.931 -1.857,-0.038 -2.793,-0.054 -4.678,-0.082 0.008,1.024 0.011,1.538 0.019,2.563 -1.431,-0.041 -2.151,-0.06 -3.597,-0.089 -0.013,-1.264 -0.02,-1.895 -0.033,-3.156 2.249,0.017 3.366,0.029 5.577,0.058 1.086,-1.239 1.626,-1.866 2.702,-3.148 -0.006,-2.318 -0.009,-3.478 -0.015,-5.796 -1.08,-1.223 -1.623,-1.822 -2.714,-3.009 -2.302,0.136 -3.734,0.208 -5.661,0.275 -0.194,0.007 -0.394,0.014 -0.6,0.02 -0.415,0.014 -0.853,0.027 -1.332,0.042 -0.295,0.33 -0.55,0.614 -0.788,0.879 -0.24,0.266 -0.463,0.513 -0.687,0.759 -0.218,0.24 -0.443,0.486 -0.687,0.752 -0.192,0.209 -0.394,0.429 -0.623,0.677 0.002,0.396 0.003,0.737 0.004,1.054 0.002,0.839 0.004,1.508 0.007,2.557 0.216,-10e-4 0.418,-0.003 0.612,-0.004 0.241,-0.001 0.47,-0.003 0.687,-0.004 0.238,-0.002 0.464,-0.004 0.687,-0.005 0.684,-0.006 1.325,-0.012 2.12,-0.02 0.19,-0.002 0.39,-0.005 0.6,-0.007 0.03,0 0.057,-10e-4 0.087,-10e-4 -0.012,-0.961 -0.018,-1.441 -0.03,-2.401 1.456,-0.03 2.18,-0.048 3.62,-0.089 m -9.666,30.612 c 8.481,0.189 18.169,0.915 20.89,1.129 V 2.847 L -13.203,2.5 v -5.176 c -0.586,-0.048 -1.22,-0.097 -1.962,-0.154 l -0.465,-0.035 v 7.663 l 2.881,0.27 v 4.564 c 0,0 -9.909,-0.555 -15.554,-0.719 V 4.225 l 2.775,0.071 v -7.671 c -0.711,-0.021 -1.418,-0.038 -2.12,-0.053 v 5.317 l -3.269,-0.07 z m 0.716,-37.943 h -8.92 v 2.139 c 3.082,0.037 6.066,0.019 8.92,-0.04 z m -4.58,21.995 c -0.002,-0.869 -0.004,-1.512 -0.006,-2.164 -10e-4,-0.376 -0.002,-0.755 -0.004,-1.181 -0.001,-0.263 -0.001,-0.544 -0.002,-0.854 -0.358,0 -0.535,0 -0.891,0.001 1.288,-3.429 2.581,-6.855 3.86,-10.287 0.425,-0.001 0.637,-0.003 1.06,-0.006 0,-0.06 0,-0.117 -0.001,-0.175 -10e-4,-0.439 -0.002,-0.823 -0.003,-1.181 -0.003,-0.93 -0.005,-1.698 -0.009,-2.877 -2.704,0.04 -4.084,0.041 -6.794,0.012 0.003,1.19 0.005,1.963 0.007,2.906 10e-4,0.358 0.003,0.742 0.004,1.182 0,0.047 0,0.091 0,0.139 0.228,0.002 0.342,0.003 0.571,0.005 -0.101,0.341 -0.152,0.512 -0.253,0.853 -1.255,-0.005 -2.088,-0.011 -3.057,-0.021 -0.219,-0.003 -0.447,-0.005 -0.687,-0.008 -0.216,-0.003 -0.445,-0.005 -0.687,-0.008 -0.074,-0.001 -0.146,-0.002 -0.222,-0.003 -0.11,-0.346 -0.165,-0.519 -0.275,-0.868 0.2,0.004 0.316,0.006 0.497,0.009 0.023,0 0.043,0 0.069,10e-4 -0.006,-1.706 -0.007,-2.558 -0.013,-4.262 -0.019,0 -0.037,-10e-4 -0.056,-10e-4 -0.803,-0.022 -1.486,-0.041 -2.119,-0.063 -0.205,-0.006 -0.404,-0.013 -0.601,-0.02 -1.193,-0.044 -2.293,-0.095 -3.847,-0.176 0.005,1.751 0.008,2.628 0.012,4.379 0.411,0.012 0.616,0.017 1.029,0.028 0.919,2.588 1.858,5.17 2.806,7.749 0.2,0.545 0.399,1.091 0.601,1.636 0.14,0.378 0.277,0.757 0.417,1.135 -0.169,0.003 -0.291,0.006 -0.417,0.008 -0.1,0.002 -0.202,0.004 -0.334,0.007 0.004,1.709 0.006,2.564 0.01,4.274 0.108,-0.003 0.216,-0.004 0.324,-0.007 0.706,-0.021 1.412,-0.035 2.119,-0.051 0.229,-0.006 0.458,-0.012 0.687,-0.017 0.229,-0.005 0.458,-0.012 0.687,-0.016 0.393,-0.008 0.786,-0.018 1.178,-0.025 1.446,-0.025 2.893,-0.044 4.34,-0.053" />
        </g>
        <g
           transform="translate(245.4614,400.9056)"
           id="g1645">
          <path
             id="path1647"
             style="fill:#b20029;fill-opacity:1;fill-rule:nonzero;stroke:none"
             d="m 0,0 c -0.117,-0.311 -0.241,-0.642 -0.391,-1.042 0.141,0 0.268,0 0.391,0 C 0.651,-1.04 1.089,-1.04 1.844,-1.04 1.398,0.149 1.175,0.744 0.731,1.937 0.432,1.147 0.232,0.616 0,0" />
        </g>
        <g
           transform="translate(276.6183,384.9957)"
           id="g1649">
          <path
             id="path1651"
             style="fill:#b20029;fill-opacity:1;fill-rule:nonzero;stroke:none"
             d="m 0,0 h 0.536 v -1.382 h 0.37 V 0 H 1.442 V 0.297 H 0 Z" />
        </g>
        <g
           transform="translate(279.0698,384.1707)"
           id="g1653">
          <path
             id="path1655"
             style="fill:#b20029;fill-opacity:1;fill-rule:nonzero;stroke:none"
             d="m 0,0 -0.235,1.122 h -0.632 v -1.679 h 0.346 v 1.402 h 0.005 l 0.323,-1.402 H 0.171 L 0.502,0.845 H 0.506 V -0.557 H 0.853 V 1.122 H 0.222 Z" />
        </g>
      </g>
    </g>
  </g>
</svg>
